<svg width="82" height="80" xmlns="http://www.w3.org/2000/svg" xmlns:xlink="http://www.w3.org/1999/xlink" xml:space="preserve" overflow="hidden"><g transform="translate(-1030 -124)"><g><g><g><g><path d="M1031 124 1111 124 1111 204 1031 204Z" fill="#E7157B" fill-rule="evenodd" fill-opacity="1"/><path d="M1056 176.996 1060 176.996 1060 174.994 1056 174.994 1056 176.996ZM1090.97 162.163C1090.75 159.126 1089.26 156.89 1086.9 156.1 1085 155.467 1082.91 155.914 1081.32 157.212 1080.35 155.308 1078.9 153.442 1077.7 152.26 1073.41 148.02 1068.67 146.938 1063.62 149.046 1059.11 150.922 1055 157.087 1055 161.981L1055 162.171C1052.29 163.086 1050.11 165.074 1049.07 167.609L1050.93 168.366C1052.24 165.135 1055.33 164.122 1056.25 163.889 1056.69 163.776 1057 163.377 1057 162.919L1057 161.981C1057 157.936 1060.66 152.445 1064.39 150.893 1068.68 149.103 1072.58 150.011 1076.3 153.685 1077.88 155.246 1079.43 157.561 1080.06 159.318 1080.18 159.664 1080.49 159.913 1080.85 159.968 1081.21 160.023 1081.58 159.874 1081.8 159.58 1082.9 158.11 1084.7 157.474 1086.27 157.999 1088 158.581 1089 160.397 1089 162.982 1089 163.472 1089.35 163.889 1089.84 163.969 1090.57 164.091 1097 165.352 1097 171.991 1097 178.868 1090.28 178.996 1090 178.998L1067 178.998 1067 181 1090 181C1093.11 180.994 1099 179.104 1099 171.991 1099 165.784 1094.28 162.989 1090.97 162.163ZM1062 176.996 1076 176.996 1076 174.994 1062 174.994 1062 176.996ZM1058 181 1064 181 1064 178.998 1058 178.998 1058 181ZM1043 181 1046 181 1046 178.998 1043 178.998 1043 181ZM1046 172.992 1055 172.992 1055 170.99 1046 170.99 1046 172.992ZM1044 176.996 1054 176.996 1054 174.994 1044 174.994 1044 176.996ZM1058 172.992 1065 172.992 1065 170.99 1058 170.99 1058 172.992ZM1048 181 1056 181 1056 178.998 1048 178.998 1048 181Z" fill="#FFFFFF" fill-rule="evenodd" fill-opacity="1"/></g></g></g></g></g></svg>